<svg width="272" height="41" viewBox="0 0 272 41" fill="none" xmlns="http://www.w3.org/2000/svg">
<line x1="75" y1="33.25" x2="95" y2="33.25" stroke="black" stroke-width="1.5"/>
<path d="M72.3705 17L72.3525 8.648L68.2125 15.56H67.1685L63.0285 8.756V17H60.7965V4.4H62.7225L67.7265 12.752L72.6405 4.4H74.5665L74.5845 17H72.3705ZM86.1599 14.084H79.8599L78.6179 17H76.2059L81.8759 4.4H84.1799L89.8679 17H87.4199L86.1599 14.084ZM85.3859 12.248L83.0099 6.74L80.6519 12.248H85.3859ZM97.1265 17.18C95.8545 17.18 94.7025 16.904 93.6705 16.352C92.6505 15.788 91.8465 15.014 91.2585 14.03C90.6825 13.046 90.3945 11.936 90.3945 10.7C90.3945 9.464 90.6885 8.354 91.2765 7.37C91.8645 6.386 92.6685 5.618 93.6885 5.066C94.7205 4.502 95.8725 4.22 97.1445 4.22C98.1765 4.22 99.1185 4.4 99.9705 4.76C100.823 5.12 101.543 5.642 102.131 6.326L100.619 7.748C99.7065 6.764 98.5845 6.272 97.2525 6.272C96.3885 6.272 95.6145 6.464 94.9305 6.848C94.2465 7.22 93.7125 7.742 93.3285 8.414C92.9445 9.086 92.7525 9.848 92.7525 10.7C92.7525 11.552 92.9445 12.314 93.3285 12.986C93.7125 13.658 94.2465 14.186 94.9305 14.57C95.6145 14.942 96.3885 15.128 97.2525 15.128C98.5845 15.128 99.7065 14.63 100.619 13.634L102.131 15.074C101.543 15.758 100.817 16.28 99.9525 16.64C99.1005 17 98.1585 17.18 97.1265 17.18ZM112.281 14.084H105.981L104.739 17H102.327L107.997 4.4H110.301L115.989 17H113.541L112.281 14.084ZM111.507 12.248L109.131 6.74L106.773 12.248H111.507ZM125.835 17L123.261 13.31C123.153 13.322 122.991 13.328 122.775 13.328H119.931V17H117.591V4.4H122.775C123.867 4.4 124.815 4.58 125.619 4.94C126.435 5.3 127.059 5.816 127.491 6.488C127.923 7.16 128.139 7.958 128.139 8.882C128.139 9.83 127.905 10.646 127.437 11.33C126.981 12.014 126.321 12.524 125.457 12.86L128.355 17H125.835ZM125.781 8.882C125.781 8.078 125.517 7.46 124.989 7.028C124.461 6.596 123.687 6.38 122.667 6.38H119.931V11.402H122.667C123.687 11.402 124.461 11.186 124.989 10.754C125.517 10.31 125.781 9.686 125.781 8.882ZM136.643 17.18C135.359 17.18 134.201 16.904 133.169 16.352C132.137 15.788 131.327 15.014 130.739 14.03C130.151 13.034 129.857 11.924 129.857 10.7C129.857 9.476 130.151 8.372 130.739 7.388C131.327 6.392 132.137 5.618 133.169 5.066C134.201 4.502 135.359 4.22 136.643 4.22C137.927 4.22 139.085 4.502 140.117 5.066C141.149 5.618 141.959 6.386 142.547 7.37C143.135 8.354 143.429 9.464 143.429 10.7C143.429 11.936 143.135 13.046 142.547 14.03C141.959 15.014 141.149 15.788 140.117 16.352C139.085 16.904 137.927 17.18 136.643 17.18ZM136.643 15.128C137.483 15.128 138.239 14.942 138.911 14.57C139.583 14.186 140.111 13.658 140.495 12.986C140.879 12.302 141.071 11.54 141.071 10.7C141.071 9.86 140.879 9.104 140.495 8.432C140.111 7.748 139.583 7.22 138.911 6.848C138.239 6.464 137.483 6.272 136.643 6.272C135.803 6.272 135.047 6.464 134.375 6.848C133.703 7.22 133.175 7.748 132.791 8.432C132.407 9.104 132.215 9.86 132.215 10.7C132.215 11.54 132.407 12.302 132.791 12.986C133.175 13.658 133.703 14.186 134.375 14.57C135.047 14.942 135.803 15.128 136.643 15.128ZM157.106 4.4V17H155.18L148.232 8.468V17H145.91V4.4H147.836L154.784 12.932V4.4H157.106ZM164.388 17.18C163.416 17.18 162.474 17.042 161.562 16.766C160.662 16.49 159.948 16.124 159.42 15.668L160.23 13.85C160.746 14.258 161.376 14.594 162.12 14.858C162.876 15.11 163.632 15.236 164.388 15.236C165.324 15.236 166.02 15.086 166.476 14.786C166.944 14.486 167.178 14.09 167.178 13.598C167.178 13.238 167.046 12.944 166.782 12.716C166.53 12.476 166.206 12.29 165.81 12.158C165.414 12.026 164.874 11.876 164.19 11.708C163.23 11.48 162.45 11.252 161.85 11.024C161.262 10.796 160.752 10.442 160.32 9.962C159.9 9.47 159.69 8.81 159.69 7.982C159.69 7.286 159.876 6.656 160.248 6.092C160.632 5.516 161.202 5.06 161.958 4.724C162.726 4.388 163.662 4.22 164.766 4.22C165.534 4.22 166.29 4.316 167.034 4.508C167.778 4.7 168.42 4.976 168.96 5.336L168.222 7.154C167.67 6.83 167.094 6.584 166.494 6.416C165.894 6.248 165.312 6.164 164.748 6.164C163.824 6.164 163.134 6.32 162.678 6.632C162.234 6.944 162.012 7.358 162.012 7.874C162.012 8.234 162.138 8.528 162.39 8.756C162.654 8.984 162.984 9.164 163.38 9.296C163.776 9.428 164.316 9.578 165 9.746C165.936 9.962 166.704 10.19 167.304 10.43C167.904 10.658 168.414 11.012 168.834 11.492C169.266 11.972 169.482 12.62 169.482 13.436C169.482 14.132 169.29 14.762 168.906 15.326C168.534 15.89 167.964 16.34 167.196 16.676C166.428 17.012 165.492 17.18 164.388 17.18ZM182.998 4.4V17H180.658V11.6H174.142V17H171.802V4.4H174.142V9.602H180.658V4.4H182.998ZM192.261 17.18C190.977 17.18 189.819 16.904 188.787 16.352C187.755 15.788 186.945 15.014 186.357 14.03C185.769 13.034 185.475 11.924 185.475 10.7C185.475 9.476 185.769 8.372 186.357 7.388C186.945 6.392 187.755 5.618 188.787 5.066C189.819 4.502 190.977 4.22 192.261 4.22C193.545 4.22 194.703 4.502 195.735 5.066C196.767 5.618 197.577 6.386 198.165 7.37C198.753 8.354 199.047 9.464 199.047 10.7C199.047 11.936 198.753 13.046 198.165 14.03C197.577 15.014 196.767 15.788 195.735 16.352C194.703 16.904 193.545 17.18 192.261 17.18ZM192.261 15.128C193.101 15.128 193.857 14.942 194.529 14.57C195.201 14.186 195.729 13.658 196.113 12.986C196.497 12.302 196.689 11.54 196.689 10.7C196.689 9.86 196.497 9.104 196.113 8.432C195.729 7.748 195.201 7.22 194.529 6.848C193.857 6.464 193.101 6.272 192.261 6.272C191.421 6.272 190.665 6.464 189.993 6.848C189.321 7.22 188.793 7.748 188.409 8.432C188.025 9.104 187.833 9.86 187.833 10.7C187.833 11.54 188.025 12.302 188.409 12.986C188.793 13.658 189.321 14.186 189.993 14.57C190.665 14.942 191.421 15.128 192.261 15.128ZM206.711 4.4C207.803 4.4 208.751 4.58 209.555 4.94C210.371 5.3 210.995 5.816 211.427 6.488C211.859 7.16 212.075 7.958 212.075 8.882C212.075 9.794 211.859 10.592 211.427 11.276C210.995 11.948 210.371 12.464 209.555 12.824C208.751 13.184 207.803 13.364 206.711 13.364H203.867V17H201.527V4.4H206.711ZM206.603 11.384C207.623 11.384 208.397 11.168 208.925 10.736C209.453 10.304 209.717 9.686 209.717 8.882C209.717 8.078 209.453 7.46 208.925 7.028C208.397 6.596 207.623 6.38 206.603 6.38H203.867V11.384H206.603Z" fill="#292929"/>
<path d="M103.234 38.098C102.628 38.098 102.035 38.0187 101.456 37.86C100.878 37.7013 100.416 37.5007 100.07 37.258L100.742 35.928C101.078 36.152 101.48 36.334 101.946 36.474C102.422 36.6047 102.889 36.67 103.346 36.67C104.392 36.67 104.914 36.3947 104.914 35.844C104.914 35.5827 104.779 35.4007 104.508 35.298C104.247 35.1953 103.822 35.0973 103.234 35.004C102.618 34.9107 102.114 34.8033 101.722 34.682C101.34 34.5607 101.004 34.3507 100.714 34.052C100.434 33.744 100.294 33.3193 100.294 32.778C100.294 32.0687 100.588 31.504 101.176 31.084C101.774 30.6547 102.576 30.44 103.584 30.44C104.098 30.44 104.611 30.5007 105.124 30.622C105.638 30.734 106.058 30.888 106.384 31.084L105.712 32.414C105.078 32.0407 104.364 31.854 103.57 31.854C103.057 31.854 102.665 31.9333 102.394 32.092C102.133 32.2413 102.002 32.442 102.002 32.694C102.002 32.974 102.142 33.1747 102.422 33.296C102.712 33.408 103.155 33.5153 103.752 33.618C104.35 33.7113 104.84 33.8187 105.222 33.94C105.605 34.0613 105.932 34.2667 106.202 34.556C106.482 34.8453 106.622 35.256 106.622 35.788C106.622 36.488 106.319 37.048 105.712 37.468C105.106 37.888 104.28 38.098 103.234 38.098ZM108.129 30.524H109.879V38H108.129V30.524ZM109.011 29.292C108.694 29.292 108.428 29.194 108.213 28.998C107.999 28.7927 107.891 28.5407 107.891 28.242C107.891 27.9433 107.999 27.696 108.213 27.5C108.428 27.2947 108.694 27.192 109.011 27.192C109.329 27.192 109.595 27.29 109.809 27.486C110.024 27.6727 110.131 27.9107 110.131 28.2C110.131 28.508 110.024 28.7693 109.809 28.984C109.604 29.1893 109.338 29.292 109.011 29.292ZM116.418 30.44C117.361 30.44 118.117 30.7153 118.686 31.266C119.256 31.8167 119.54 32.6333 119.54 33.716V38H117.79V33.94C117.79 33.2867 117.636 32.7967 117.328 32.47C117.02 32.134 116.582 31.966 116.012 31.966C115.368 31.966 114.86 32.162 114.486 32.554C114.113 32.9367 113.926 33.492 113.926 34.22V38H112.176V30.524H113.842V31.49C114.132 31.1447 114.496 30.8833 114.934 30.706C115.373 30.5287 115.868 30.44 116.418 30.44ZM125.259 38.098C124.484 38.098 123.789 37.9347 123.173 37.608C122.557 37.2813 122.076 36.8287 121.731 36.25C121.385 35.662 121.213 34.9993 121.213 34.262C121.213 33.5247 121.385 32.8667 121.731 32.288C122.076 31.7093 122.552 31.2567 123.159 30.93C123.775 30.6033 124.475 30.44 125.259 30.44C125.996 30.44 126.64 30.5893 127.191 30.888C127.751 31.1867 128.171 31.616 128.451 32.176L127.107 32.96C126.892 32.6147 126.621 32.358 126.295 32.19C125.977 32.0127 125.627 31.924 125.245 31.924C124.591 31.924 124.05 32.1387 123.621 32.568C123.191 32.988 122.977 33.5527 122.977 34.262C122.977 34.9713 123.187 35.5407 123.607 35.97C124.036 36.39 124.582 36.6 125.245 36.6C125.627 36.6 125.977 36.516 126.295 36.348C126.621 36.1707 126.892 35.9093 127.107 35.564L128.451 36.348C128.161 36.908 127.737 37.342 127.177 37.65C126.626 37.9487 125.987 38.098 125.259 38.098ZM136.882 34.304C136.882 34.4253 136.873 34.598 136.854 34.822H130.988C131.091 35.3727 131.357 35.8113 131.786 36.138C132.225 36.4553 132.766 36.614 133.41 36.614C134.231 36.614 134.908 36.3433 135.44 35.802L136.378 36.88C136.042 37.2813 135.617 37.5847 135.104 37.79C134.591 37.9953 134.012 38.098 133.368 38.098C132.547 38.098 131.823 37.9347 131.198 37.608C130.573 37.2813 130.087 36.8287 129.742 36.25C129.406 35.662 129.238 34.9993 129.238 34.262C129.238 33.534 129.401 32.8807 129.728 32.302C130.064 31.714 130.526 31.2567 131.114 30.93C131.702 30.6033 132.365 30.44 133.102 30.44C133.83 30.44 134.479 30.6033 135.048 30.93C135.627 31.2473 136.075 31.7 136.392 32.288C136.719 32.8667 136.882 33.5387 136.882 34.304ZM133.102 31.84C132.542 31.84 132.066 32.008 131.674 32.344C131.291 32.6707 131.058 33.1093 130.974 33.66H135.216C135.141 33.1187 134.913 32.68 134.53 32.344C134.147 32.008 133.671 31.84 133.102 31.84ZM148.998 36.46V38H141.774V36.782L145.666 33.086C146.105 32.666 146.399 32.302 146.548 31.994C146.707 31.6767 146.786 31.364 146.786 31.056C146.786 30.5987 146.632 30.2487 146.324 30.006C146.016 29.7633 145.564 29.642 144.966 29.642C143.968 29.642 143.202 29.9827 142.67 30.664L141.396 29.684C141.779 29.1707 142.292 28.774 142.936 28.494C143.59 28.2047 144.318 28.06 145.12 28.06C146.184 28.06 147.034 28.312 147.668 28.816C148.303 29.32 148.62 30.006 148.62 30.874C148.62 31.406 148.508 31.9053 148.284 32.372C148.06 32.8387 147.631 33.3707 146.996 33.968L144.378 36.46H148.998ZM154.096 38.14C153.312 38.14 152.612 37.944 151.996 37.552C151.38 37.1507 150.894 36.572 150.54 35.816C150.185 35.0507 150.008 34.1453 150.008 33.1C150.008 32.0547 150.185 31.154 150.54 30.398C150.894 29.6327 151.38 29.054 151.996 28.662C152.612 28.2607 153.312 28.06 154.096 28.06C154.88 28.06 155.58 28.2607 156.196 28.662C156.821 29.054 157.311 29.6327 157.666 30.398C158.02 31.154 158.198 32.0547 158.198 33.1C158.198 34.1453 158.02 35.0507 157.666 35.816C157.311 36.572 156.821 37.1507 156.196 37.552C155.58 37.944 154.88 38.14 154.096 38.14ZM154.096 36.558C154.796 36.558 155.346 36.2687 155.748 35.69C156.158 35.1113 156.364 34.248 156.364 33.1C156.364 31.952 156.158 31.0887 155.748 30.51C155.346 29.9313 154.796 29.642 154.096 29.642C153.405 29.642 152.854 29.9313 152.444 30.51C152.042 31.0887 151.842 31.952 151.842 33.1C151.842 34.248 152.042 35.1113 152.444 35.69C152.854 36.2687 153.405 36.558 154.096 36.558ZM162.747 28.2V38H160.927V29.726H158.855V28.2H162.747ZM168.863 32.246C169.769 32.358 170.459 32.666 170.935 33.17C171.411 33.674 171.649 34.304 171.649 35.06C171.649 35.6293 171.505 36.1473 171.215 36.614C170.926 37.0807 170.487 37.454 169.899 37.734C169.321 38.0047 168.611 38.14 167.771 38.14C167.071 38.14 166.395 38.042 165.741 37.846C165.097 37.6407 164.547 37.3607 164.089 37.006L164.873 35.592C165.228 35.8907 165.657 36.1287 166.161 36.306C166.675 36.474 167.202 36.558 167.743 36.558C168.387 36.558 168.891 36.4273 169.255 36.166C169.629 35.8953 169.815 35.5313 169.815 35.074C169.815 34.6167 169.638 34.262 169.283 34.01C168.938 33.7487 168.406 33.618 167.687 33.618H166.791V32.372L169.017 29.726H164.565V28.2H171.243V29.418L168.863 32.246Z" fill="#292929"/>
<line x1="178" y1="33.25" x2="198" y2="33.25" stroke="black" stroke-width="1.5"/>
</svg>
